<?xml version="1.0" encoding="iso-8859-1"?>
<!-- Generator: Adobe Illustrator 19.0.0, SVG Export Plug-In . SVG Version: 6.00 Build 0)  -->
<svg version="1.1" id="Capa_1" xmlns="http://www.w3.org/2000/svg" xmlns:xlink="http://www.w3.org/1999/xlink" x="0px" y="0px"
	 viewBox="0 0 512 512" style="enable-background:new 0 0 512 512;" xml:space="preserve">
<g>
	<g>
		<path d="M256,0C114.837,0,0,114.837,0,256s114.837,256,256,256s256-114.837,256-256S397.163,0,256,0z M256,490.667
			c-129.387,0-234.667-105.28-234.667-234.667S126.592,21.333,256,21.333c129.387,0,234.667,105.28,234.667,234.667
			S385.387,490.667,256,490.667z"/>
	</g>
</g>
<g>
	<g>
		<path d="M202.667,192c-5.888,0-10.667,4.779-10.667,10.667c0,17.643-14.357,32-32,32s-32-14.357-32-32
			c0-5.888-4.779-10.667-10.667-10.667s-10.667,4.779-10.667,10.667C106.667,232.064,130.581,256,160,256
			s53.333-23.936,53.333-53.333C213.333,196.779,208.555,192,202.667,192z"/>
	</g>
</g>
<g>
	<g>
		<path d="M394.667,192c-5.888,0-10.667,4.779-10.667,10.667c0,17.643-14.357,32-32,32c-17.643,0-32-14.357-32-32
			c0-5.888-4.779-10.667-10.667-10.667s-10.667,4.779-10.667,10.667C298.667,232.064,322.581,256,352,256
			c29.419,0,53.333-23.936,53.333-53.333C405.333,196.779,400.555,192,394.667,192z"/>
	</g>
</g>
<g>
	<g>
		<path d="M309.333,362.667H202.667c-5.888,0-10.667,4.779-10.667,10.667c0,5.888,4.779,10.667,10.667,10.667h106.667
			c5.888,0,10.667-4.779,10.667-10.667C320,367.445,315.221,362.667,309.333,362.667z"/>
	</g>
</g>
<g>
	<g>
		<path d="M501.333,64h-22.741l31.616-47.424c2.176-3.264,2.389-7.467,0.512-10.944C508.885,2.176,505.28,0,501.333,0h-42.667
			C452.779,0,448,4.779,448,10.667s4.779,10.667,10.667,10.667h22.72l-31.595,47.424c-2.176,3.264-2.389,7.467-0.512,10.944
			c1.835,3.456,5.44,5.632,9.387,5.632h42.667c5.888,0,10.667-4.779,10.667-10.667S507.221,64,501.333,64z"/>
	</g>
</g>
<g>
	<g>
		<path d="M437.333,149.333h-63.147l71.467-89.344c2.581-3.2,3.072-7.595,1.28-11.285c-1.771-3.691-5.504-6.037-9.6-6.037H352
			c-5.888,0-10.667,4.779-10.667,10.667S346.112,64,352,64h63.147l-71.467,89.344c-2.581,3.2-3.072,7.595-1.28,11.285
			c1.771,3.691,5.504,6.037,9.6,6.037h85.333c5.888,0,10.667-4.779,10.667-10.667S443.221,149.333,437.333,149.333z"/>
	</g>
</g>
<g>
</g>
<g>
</g>
<g>
</g>
<g>
</g>
<g>
</g>
<g>
</g>
<g>
</g>
<g>
</g>
<g>
</g>
<g>
</g>
<g>
</g>
<g>
</g>
<g>
</g>
<g>
</g>
<g>
</g>
</svg>
